HIERARCHY
ROOT Hips
{
 OFFSET 0.000000 0.000000 0.000000
 CHANNELS 6 Xposition Yposition Zposition Yrotation Xrotation Zrotation
 JOINT Chest
 {
  OFFSET 0.000000 9.585900 0.002600
  CHANNELS 3 Yrotation Xrotation Zrotation
  JOINT Chest2
  {
   OFFSET 0.000000 9.601200 -0.005300
   CHANNELS 3 Yrotation Xrotation Zrotation
   JOINT Chest3
   {
    OFFSET 0.000000 9.561800 0.000000
    CHANNELS 3 Yrotation Xrotation Zrotation
    JOINT Chest4
    {
     OFFSET 0.000000 9.552100 0.000000
     CHANNELS 3 Yrotation Xrotation Zrotation
     JOINT Neck
     {
      OFFSET 0.000000 14.453000 0.000000
      CHANNELS 3 Yrotation Xrotation Zrotation
      JOINT Head
      {
       OFFSET 0.000000 8.936500 -0.011300
       CHANNELS 3 Yrotation Xrotation Zrotation
       End Site
       {
        OFFSET 0.000000 17.073600 -0.006000
       }
      }
     }
     JOINT RightCollar
     {
      OFFSET -2.921100 9.558500 0.000000
      CHANNELS 3 Yrotation Xrotation Zrotation
      JOINT RightShoulder
      {
       OFFSET -13.519700 0.000000 0.000000
       CHANNELS 3 Yrotation Xrotation Zrotation
       JOINT RightElbow
       {
        OFFSET 0.000000 -29.696600 0.000000
        CHANNELS 3 Yrotation Xrotation Zrotation
        JOINT RightWrist
        {
         OFFSET 0.000000 -24.004700 0.000000
         CHANNELS 3 Yrotation Xrotation Zrotation
         End Site
         {
          OFFSET 0.000000 -17.728500 0.000000
         }
        }
       }
      }
     }
     JOINT LeftCollar
     {
      OFFSET 2.921100 9.558500 0.000000
      CHANNELS 3 Yrotation Xrotation Zrotation
      JOINT LeftShoulder
      {
       OFFSET 13.519700 0.000000 0.000000
       CHANNELS 3 Yrotation Xrotation Zrotation
       JOINT LeftElbow
       {
        OFFSET 0.000000 -29.696600 0.000000
        CHANNELS 3 Yrotation Xrotation Zrotation
        JOINT LeftWrist
        {
         OFFSET 0.000000 -24.004700 0.000000
         CHANNELS 3 Yrotation Xrotation Zrotation
         End Site
         {
          OFFSET 0.000000 -17.728500 0.000000
         }
        }
       }
      }
     }
    }
   }
  }
 }
 JOINT RightHip
 {
  OFFSET -7.771700 -0.012900 -0.001300
  CHANNELS 3 Yrotation Xrotation Zrotation
  JOINT RightKnee
  {
   OFFSET 0.000000 -40.869800 0.001200
   CHANNELS 3 Yrotation Xrotation Zrotation
   JOINT RightAnkle
   {
    OFFSET 0.000000 -39.717900 0.002100
    CHANNELS 3 Yrotation Xrotation Zrotation
    JOINT RightToe
    {
     OFFSET 0.000000 -4.965400 11.033500
     CHANNELS 3 Yrotation Xrotation Zrotation
     End Site
     {
      OFFSET 0.000000 -1.423100 5.872300
     }
    }
   }
  }
 }
 JOINT LeftHip
 {
  OFFSET 7.771700 -0.012900 -0.001300
  CHANNELS 3 Yrotation Xrotation Zrotation
  JOINT LeftKnee
  {
   OFFSET 0.000000 -40.869800 0.001200
   CHANNELS 3 Yrotation Xrotation Zrotation
   JOINT LeftAnkle
   {
    OFFSET 0.000000 -39.717900 0.002100
    CHANNELS 3 Yrotation Xrotation Zrotation
    JOINT LeftToe
    {
     OFFSET 0.000000 -4.965400 11.033500
     CHANNELS 3 Yrotation Xrotation Zrotation
     End Site
     {
      OFFSET 0.000000 -1.423100 5.872300
     }
    }
   }
  }
 }
}
MOTION
Frames: 16
Frame Time: 0.008333
0.000000 85.388000 0.000000 0.000000 -5.767877 0.000000 0.000000 11.653817 0.000000 0.000000 -5.885947 0.000000 0.000000 -0.000000 0.000000 0.000000 -0.000000 0.000000 0.000000 12.528835 0.000000 0.000000 0.711642 0.000000 0.000000 -0.000000 0.000000 0.000000 0.000000 -90.000000 0.000000 -2.309062 0.000000 0.000000 2.309062 0.000000 0.000000 -0.000000 0.000000 0.000000 -0.000000 90.000000 0.000000 -2.309062 0.000000 0.000000 2.309062 0.000000 0.000000 8.520406 0.000000 0.000000 1.905762 0.000000 -0.000000 -4.658285 0.000000 0.000000 -0.000000 0.000000 0.000000 8.520406 0.000000 0.000000 1.905762 0.000000 -0.000000 -4.658285 0.000000 0.000000 -0.000000 0.000000
-160.628860 55.726531 106.938513 -172.948564 -29.417017 -11.530097 -0.563689 12.634771 6.733545 -0.623881 7.292367 2.155568 -0.738136 9.123561 2.688611 -0.624134 7.292295 2.153439 1.794844 21.045174 -1.085159 2.166106 -3.317767 -1.572831 0.969716 4.871817 -2.858415 -19.148337 -4.807118 5.280337 116.321922 -87.363299 -95.879842 11.779729 -4.283532 -19.403329 -8.659416 2.800910 -3.175539 3.895530 -1.011770 -0.644089 -119.697953 -73.066409 121.815668 11.199663 -12.006278 -1.074212 -22.483341 -33.879818 10.123149 43.041390 84.497651 39.845362 0.559061 -19.493174 -2.378063 -1.319173 2.873151 -0.606562 -15.451258 -47.771824 12.654903 -179.663517 80.627394 175.030278 -2.525988 -17.637173 3.674198 -0.104820 -0.531578 -0.047425
-160.628757 55.728129 106.938500 -172.950070 -29.409711 -11.526644 -0.565232 12.634481 6.732610 -0.622631 7.285756 2.154802 -0.737801 9.127916 2.690862 -0.625844 7.286901 2.152468 1.728705 20.922328 -1.126884 2.101710 -3.471383 -1.604128 0.943116 4.892458 -2.859111 -19.134126 -4.822051 5.284063 116.344704 -87.360535 -95.899382 11.769425 -4.286228 -19.389385 -8.653750 2.808418 -3.188018 3.892137 -1.020493 -0.635271 -119.753442 -73.072801 121.857681 11.197347 -12.025680 -1.070867 -22.488110 -33.887886 10.126966 43.026981 84.501874 39.827286 0.562257 -19.490651 -2.376907 -1.321375 2.872734 -0.604003 -15.444244 -47.779437 12.653229 -179.652041 80.628747 175.040712 -2.527820 -17.637844 3.681098 -0.101467 -0.533452 -0.047852
-160.629576 55.730226 106.938017 -172.950957 -29.405018 -11.518586 -0.568350 12.638732 6.725851 -0.620795 7.285482 2.155796 -0.737158 9.121686 2.689857 -0.623333 7.294752 2.157496 1.657290 20.777729 -1.177776 2.037436 -3.643808 -1.638302 0.914242 4.906780 -2.865553 -19.118696 -4.836201 5.288118 116.486823 -87.350313 -96.043501 11.760970 -4.293226 -19.378319 -8.649040 2.805945 -3.205984 3.885658 -1.037949 -0.625856 -119.827357 -73.064103 121.925205 11.197004 -12.042831 -1.063945 -22.487196 -33.895396 10.123304 43.050672 84.505038 39.847930 0.560226 -19.491153 -2.376199 -1.323685 2.871886 -0.601996 -15.430648 -47.785093 12.637714 -179.649907 80.631995 175.045816 -2.525944 -17.638557 3.682434 -0.100914 -0.533554 -0.047483
-160.628896 55.732395 106.938322 -172.962501 -29.396096 -11.514223 -0.560445 12.632675 6.727778 -0.622031 7.292195 2.157893 -0.736231 9.124058 2.690278 -0.622441 7.296738 2.157924 1.589950 20.619589 -1.230981 1.970711 -3.826342 -1.670492 0.901388 4.908787 -2.871855 -19.118175 -4.836460 5.290213 116.755665 -87.337734 -96.309252 11.755685 -4.303215 -19.376344 -8.639519 2.800952 -3.223602 3.876632 -1.054562 -0.616955 -119.817089 -73.057586 121.911687 11.203195 -12.099653 -1.052028 -22.484175 -33.904812 10.130967 43.055329 84.504462 39.851038 0.563988 -19.489798 -2.373543 -1.333083 2.873128 -0.604769 -15.423149 -47.794543 12.640284 -179.648124 80.632995 175.050530 -2.524541 -17.639398 3.681807 -0.100445 -0.534204 -0.047107
-160.627684 55.734569 106.939090 -172.978994 -29.384573 -11.510723 -0.547477 12.623184 6.732721 -0.619794 7.298705 2.157563 -0.726481 9.134701 2.686819 -0.614624 7.301589 2.154004 1.509609 20.444713 -1.269170 1.899167 -4.010277 -1.697670 0.882693 4.887084 -2.860969 -19.132971 -4.818332 5.288469 117.218647 -87.328085 -96.756228 11.775141 -4.305603 -19.392924 -8.647638 2.783506 -3.219480 3.868444 -1.075744 -0.609857 -119.828618 -73.041417 121.930223 11.214552 -12.142819 -1.042110 -22.481982 -33.915422 10.145751 43.038536 84.501981 39.831926 0.564147 -19.488824 -2.368530 -1.336011 2.875909 -0.609373 -15.415908 -47.806963 12.648486 -179.699034 80.633409 175.004472 -2.530830 -17.640460 3.680231 -0.100586 -0.534045 -0.047069
-160.621562 55.735860 106.942817 -173.022313 -29.356000 -11.521803 -0.507059 12.595782 6.766129 -0.616006 7.299900 2.156275 -0.728162 9.128062 2.688311 -0.608070 7.307038 2.145777 1.431258 20.289771 -1.307190 1.823133 -4.188584 -1.719237 0.865560 4.894545 -2.851262 -19.145905 -4.802979 5.291387 117.686948 -87.300884 -97.220458 11.774041 -4.317253 -19.401944 -8.652633 2.779098 -3.211535 3.874472 -1.084027 -0.614659 -119.894677 -72.982160 121.987888 11.246192 -12.143419 -1.019942 -22.479984 -33.934341 10.200013 43.018804 84.498464 39.810693 0.605140 -19.505633 -2.363938 -1.377771 2.897050 -0.627112 -15.416517 -47.836329 12.703259 -179.791479 80.626712 174.927312 -2.546583 -17.647567 3.677010 -0.101336 -0.532138 -0.047752
-160.620862 55.738597 106.942401 -173.030506 -29.350558 -11.520240 -0.500084 12.594262 6.768939 -0.612458 7.300709 2.153599 -0.723840 9.128985 2.685163 -0.610121 7.305097 2.142697 1.351797 20.142548 -1.341103 1.745098 -4.357745 -1.736081 0.859384 4.911184 -2.838738 -19.167168 -4.791159 5.297335 118.081862 -87.259502 -97.616487 11.806171 -4.339939 -19.442612 -8.650625 2.782281 -3.215927 3.871664 -1.097799 -0.607679 -119.883349 -72.960473 121.974473 11.257247 -12.146734 -1.012721 -22.477010 -33.937334 10.207006 43.015373 84.495708 39.805621 0.608416 -19.508260 -2.363022 -1.384938 2.900079 -0.628427 -15.411910 -47.840971 12.706681 -179.822356 80.626940 174.898631 -2.548349 -17.649014 3.677025 -0.099942 -0.534116 -0.047766
-160.620210 55.740696 106.942581 -173.046009 -29.341047 -11.513839 -0.493841 12.597172 6.767894 -0.605909 7.293061 2.150731 -0.722127 9.132417 2.674883 -0.608533 7.298824 2.147557 1.272845 20.003812 -1.371876 1.667078 -4.516901 -1.749764 0.860479 4.913988 -2.828721 -19.186881 -4.766091 5.300475 118.510929 -87.221972 -98.048357 11.800852 -4.345080 -19.455541 -8.655457 2.788551 -3.225231 3.876540 -1.101320 -0.611457 -119.869989 -72.932339 121.960173 11.251456 -12.205091 -0.982478 -22.469211 -33.946682 10.214537 43.032944 84.490948 39.822293 0.612291 -19.513846 -2.364226 -1.393932 2.907043 -0.629602 -15.392193 -47.853276 12.702768 -179.854346 80.627569 174.875610 -2.547331 -17.649619 3.673094 -0.103601 -0.534794 -0.045038
-160.619460 55.741965 106.943616 -173.062389 -29.323861 -11.506308 -0.484576 12.582201 6.768866 -0.607186 7.294985 2.146623 -0.721502 9.130358 2.671708 -0.608204 7.297810 2.144575 1.195094 19.872339 -1.400711 1.590109 -4.667365 -1.761711 0.868236 4.919490 -2.829002 -19.202919 -4.744366 5.312667 118.759080 -87.192570 -98.307883 11.789548 -4.353090 -19.460124 -8.654413 2.788490 -3.222423 3.879895 -1.099563 -0.615676 -119.879709 -72.906662 121.984624 11.277266 -12.243622 -0.944050 -22.465904 -33.963040 10.227521 43.042650 84.487507 39.829177 0.612675 -19.523283 -2.366637 -1.393506 2.917672 -0.628508 -15.371931 -47.874326 12.696826 -179.921723 80.627306 174.821851 -2.550856 -17.651291 3.668803 -0.103278 -0.534064 -0.044080
-160.618094 55.743506 106.943556 -173.073584 -29.311008 -11.504909 -0.476967 12.569077 6.773446 -0.613007 7.303837 2.140966 -0.716633 9.122756 2.673190 -0.608269 7.297288 2.143174 1.111740 19.748683 -1.432603 1.515832 -4.811874 -1.773992 0.876177 4.919308 -2.828832 -19.214524 -4.727628 5.318795 118.793785 -87.172906 -98.364699 11.766337 -4.356349 -19.462871 -8.684181 2.780860 -3.239378 3.914907 -1.081693 -0.643769 -119.853656 -72.857788 121.958227 11.296798 -12.234905 -0.927129 -22.466714 -33.974539 10.245812 43.030185 84.488238 39.814444 0.603952 -19.522905 -2.369492 -1.385149 2.915838 -0.623957 -15.370727 -47.886473 12.709603 -179.915357 80.626322 174.827168 -2.551122 -17.656043 3.671817 -0.103442 -0.531767 -0.044941
-160.616298 55.744817 106.943159 -173.082629 -29.297383 -11.506423 -0.475348 12.563844 6.776629 -0.608773 7.296870 2.141874 -0.719340 9.124153 2.670501 -0.608793 7.296839 2.141920 1.029322 19.630421 -1.464414 1.445127 -4.949627 -1.788288 0.886441 4.915538 -2.828627 -19.221512 -4.720374 5.322952 118.584910 -87.174166 -98.180379 11.737777 -4.354957 -19.466665 -8.697315 2.772375 -3.244542 3.942584 -1.074376 -0.654175 -119.855690 -72.858167 121.963429 11.312466 -12.207416 -0.932844 -22.468860 -33.985473 10.263923 43.035910 84.487636 39.821293 0.594143 -19.523291 -2.372724 -1.377408 2.915490 -0.620772 -15.368547 -47.900246 12.719756 -179.901226 80.625197 174.846121 -2.549157 -17.661427 3.673005 -0.102071 -0.531881 -0.045941
-160.614762 55.746232 106.941650 -173.089378 -29.288387 -11.507365 -0.476099 12.566838 6.777029 -0.610959 7.295814 2.139552 -0.722113 9.122895 2.667531 -0.610992 7.295782 2.139550 0.960445 19.514146 -1.493998 1.379355 -5.077580 -1.804724 0.898193 4.885835 -2.826567 -19.228268 -4.689502 5.323107 118.267350 -87.197533 -97.878588 11.726543 -4.366740 -19.448395 -8.698038 2.761542 -3.245685 3.964452 -1.070669 -0.653516 -119.877541 -72.883409 121.981757 11.322818 -12.166982 -0.937110 -22.471933 -33.992716 10.278920 43.036965 84.490279 39.821430 0.587877 -19.521175 -2.376433 -1.374229 2.911337 -0.617681 -15.366194 -47.908684 12.725445 -179.893232 80.622701 174.858584 -2.547481 -17.667369 3.673630 -0.102109 -0.529931 -0.047101
-160.613015 55.747418 106.939759 -173.094924 -29.279141 -11.509631 -0.479634 12.580432 6.773151 -0.618577 7.291636 2.136134 -0.714950 9.110833 2.670032 -0.624475 7.295741 2.134786 0.905786 19.409621 -1.522480 1.320198 -5.194774 -1.822732 0.920247 4.871703 -2.825120 -19.243124 -4.689473 5.331111 117.909227 -87.209993 -97.508781 11.709240 -4.361159 -19.437344 -8.686989 2.753545 -3.246711 3.986490 -1.066590 -0.672247 -119.948662 -72.953228 122.049904 11.277254 -12.126568 -0.954807 -22.480610 -33.999579 10.294190 43.067002 84.491935 39.847466 0.593565 -19.517602 -2.383585 -1.372252 2.907082 -0.616018 -15.371731 -47.916575 12.736557 -179.875743 80.619799 174.876777 -2.544979 -17.673660 3.672818 -0.102010 -0.528285 -0.047056
-160.610992 55.746504 106.940784 -173.093240 -29.245685 -11.514349 -0.488099 12.556857 6.775279 -0.627052 7.292457 2.132991 -0.738780 9.115198 2.660715 -0.598863 7.286060 2.139236 0.836960 19.316769 -1.553870 1.268477 -5.300759 -1.842386 0.921719 4.861295 -2.828320 -19.240397 -4.695131 5.331659 117.521656 -87.243916 -97.125639 11.722513 -4.367787 -19.426174 -8.683973 2.748738 -3.248576 4.001437 -1.067648 -0.695768 -119.975619 -72.987016 122.060031 11.242205 -12.105783 -0.955881 -22.507389 -34.029205 10.318069 43.107855 84.493499 39.888326 0.592323 -19.515373 -2.394410 -1.367556 2.905484 -0.612719 -15.400874 -47.950398 12.762484 -179.900662 80.615801 174.847422 -2.550613 -17.676016 3.673148 -0.104183 -0.527989 -0.046623
-160.609288 55.746392 106.939624 -173.097073 -29.226604 -11.515556 -0.488277 12.540368 6.778007 -0.640578 7.299809 2.127658 -0.745942 9.112883 2.658875 -0.629892 7.287780 2.132850 0.815385 19.229971 -1.583512 1.225077 -5.395401 -1.864353 0.962034 4.846792 -2.829918 -19.231394 -4.700337 5.331514 117.220557 -87.273910 -96.834395 11.718446 -4.361229 -19.419787 -8.638317 2.737877 -3.250112 3.999400 -1.068062 -0.735727 -119.966794 -73.013783 122.045197 11.230786 -12.049794 -0.967055 -22.521299 -34.046926 10.336375 43.124472 84.498788 39.903937 0.590121 -19.512464 -2.400903 -1.362466 2.901412 -0.611130 -15.412262 -47.969831 12.777479 -179.895048 80.611410 174.851781 -2.552642 -17.679731 3.671371 -0.104605 -0.528047 -0.044617
